<svg version="1.1" id="Layer_1" xmlns="http://www.w3.org/2000/svg" xmlns:xlink="http://www.w3.org/1999/xlink" x="0px" y="0px"
	 width="100%" viewBox="0 0 480 480" enable-background="new 0 0 480 480" xml:space="preserve">
<path fill="#000000" opacity="1.000000" stroke="none" 
	d="
M1.000000,178.000000 
	C1.000000,118.666664 1.000000,59.833332 1.000000,1.000000 
	C161.000000,1.000000 321.000000,1.000000 481.000000,1.000000 
	C481.000000,161.000000 481.000000,321.000000 481.000000,481.000000 
	C321.000000,481.000000 161.000000,481.000000 1.000000,481.000000 
	C1.000000,380.166656 1.000000,279.333344 1.000000,178.000000 
M44.002422,186.500000 
	C44.002441,226.332138 43.981133,266.164307 44.065262,305.996277 
	C44.069485,307.994202 44.443798,310.381927 45.559746,311.928864 
	C64.623344,338.354584 83.787369,364.708313 103.046516,390.992035 
	C106.681702,395.953125 109.888161,402.194611 114.888763,405.023865 
	C138.149109,418.184235 161.965225,430.362976 185.592850,442.873322 
	C203.275330,452.235840 220.944748,461.624420 238.722397,470.802979 
	C240.075592,471.501648 242.522781,471.151337 243.993515,470.387543 
	C259.561493,462.302856 275.010498,453.989655 290.539368,445.828918 
	C313.341003,433.846161 336.211548,421.994141 358.977753,409.944794 
	C363.293396,407.660675 368.096863,405.453217 371.206024,401.918182 
	C376.907684,395.435699 381.476471,387.962585 386.585724,380.952179 
	C401.054565,361.099548 415.419373,341.168549 430.121429,321.489716 
	C435.388428,314.439789 438.296692,307.454926 438.238922,298.161163 
	C437.798645,227.332855 437.997681,156.500580 437.997681,85.669540 
	C437.997681,83.681038 437.997650,81.692535 437.997650,79.550285 
	C398.583710,65.643829 359.335968,51.825222 320.110138,37.944569 
	C297.783478,30.043930 275.486450,22.059256 253.189194,14.075768 
	C245.793335,11.427702 239.157013,10.534835 230.890579,13.612921 
	C190.797668,28.541893 150.293243,42.366863 109.921303,56.545044 
	C88.057495,64.223373 66.167068,71.825867 44.002422,79.562477 
	C44.002422,114.867943 44.002422,150.183975 44.002422,186.500000 
z"/>
<path fill="#D43B3B" opacity="1.000000" stroke="none" 
	d="
M44.002422,186.000000 
	C44.002422,150.183975 44.002422,114.867943 44.002422,79.562477 
	C66.167068,71.825867 88.057495,64.223373 109.921303,56.545044 
	C150.293243,42.366863 190.797668,28.541893 230.890579,13.612921 
	C239.157013,10.534835 245.793335,11.427702 253.189194,14.075768 
	C275.486450,22.059256 297.783478,30.043930 320.110138,37.944569 
	C359.335968,51.825222 398.583710,65.643829 437.997650,79.550285 
	C437.997650,81.692535 437.997681,83.681038 437.997681,85.669540 
	C437.997681,156.500580 437.798645,227.332855 438.238922,298.161163 
	C438.296692,307.454926 435.388428,314.439789 430.121429,321.489716 
	C415.419373,341.168549 401.054565,361.099548 386.585724,380.952179 
	C381.476471,387.962585 376.907684,395.435699 371.206024,401.918182 
	C368.096863,405.453217 363.293396,407.660675 358.977753,409.944794 
	C336.211548,421.994141 313.341003,433.846161 290.539368,445.828918 
	C275.010498,453.989655 259.561493,462.302856 243.993515,470.387543 
	C242.522781,471.151337 240.075592,471.501648 238.722397,470.802979 
	C220.944748,461.624420 203.275330,452.235840 185.592850,442.873322 
	C161.965225,430.362976 138.149109,418.184235 114.888763,405.023865 
	C109.888161,402.194611 106.681702,395.953125 103.046516,390.992035 
	C83.787369,364.708313 64.623344,338.354584 45.559746,311.928864 
	C44.443798,310.381927 44.069485,307.994202 44.065262,305.996277 
	C43.981133,266.164307 44.002441,226.332138 44.002422,186.000000 
M180.381973,46.975201 
	C139.616028,61.346001 98.850082,75.716797 58.048920,90.100014 
	C57.962887,91.488693 57.829063,92.642029 57.828896,93.795372 
	C57.818893,163.290771 57.797157,232.786224 57.920849,302.281403 
	C57.924889,304.550232 58.944614,307.160065 60.293964,309.032074 
	C79.573616,335.779541 98.943657,362.462463 118.453453,389.042389 
	C120.336014,391.607178 122.991829,393.950256 125.796608,395.439972 
	C162.962860,415.180145 200.243683,434.704590 237.409164,454.446198 
	C240.344864,456.005585 242.420563,455.774872 245.172028,454.316986 
	C282.653259,434.457092 320.201843,414.724121 357.677887,394.854431 
	C359.788605,393.735382 361.795288,391.978912 363.206635,390.048431 
	C382.960297,363.027985 402.636780,335.950806 422.193787,308.787842 
	C423.532928,306.927887 424.425476,304.277618 424.429321,301.993073 
	C424.545624,232.831161 424.508820,163.669022 424.574585,94.506989 
	C424.577454,91.466843 423.914215,89.905396 420.684814,88.774460 
	C361.996429,68.221481 303.377289,47.470966 244.695038,26.900377 
	C242.567581,26.154617 239.731277,26.183550 237.590866,26.917511 
	C218.723053,33.387356 199.938156,40.099007 180.381973,46.975201 
z"/>
<path fill="#FEFAFA" opacity="1.000000" stroke="none" 
	d="
M180.755341,46.857162 
	C199.938156,40.099007 218.723053,33.387356 237.590866,26.917511 
	C239.731277,26.183550 242.567581,26.154617 244.695038,26.900377 
	C303.377289,47.470966 361.996429,68.221481 420.684814,88.774460 
	C423.914215,89.905396 424.577454,91.466843 424.574585,94.506989 
	C424.508820,163.669022 424.545624,232.831161 424.429321,301.993073 
	C424.425476,304.277618 423.532928,306.927887 422.193787,308.787842 
	C402.636780,335.950806 382.960297,363.027985 363.206635,390.048431 
	C361.795288,391.978912 359.788605,393.735382 357.677887,394.854431 
	C320.201843,414.724121 282.653259,434.457092 245.172028,454.316986 
	C242.420563,455.774872 240.344864,456.005585 237.409164,454.446198 
	C200.243683,434.704590 162.962860,415.180145 125.796608,395.439972 
	C122.991829,393.950256 120.336014,391.607178 118.453453,389.042389 
	C98.943657,362.462463 79.573616,335.779541 60.293964,309.032074 
	C58.944614,307.160065 57.924889,304.550232 57.920849,302.281403 
	C57.797157,232.786224 57.818893,163.290771 57.828896,93.795372 
	C57.829063,92.642029 57.962887,91.488693 58.048920,90.100014 
	C98.850082,75.716797 139.616028,61.346001 180.755341,46.857162 
M345.828918,387.367920 
	C348.491302,385.747498 351.863892,384.691101 353.682861,382.400818 
	C359.136108,375.534668 363.982422,368.186432 369.644836,360.684418 
	C373.477417,355.241943 377.309998,349.799469 381.720612,343.972931 
	C389.139801,333.646820 396.558990,323.320679 404.562439,312.655029 
	C405.638489,311.175629 406.599548,309.593536 407.811707,308.235687 
	C411.763428,303.808929 413.169128,298.857086 412.976685,292.798950 
	C412.527679,278.662018 412.860565,264.501099 412.826874,250.349991 
	C412.778168,229.878571 412.685394,209.407257 412.780182,188.020569 
	C412.792786,159.873856 412.738953,131.726761 412.901123,103.580910 
	C412.921661,100.015526 411.895569,98.435234 408.444885,97.227692 
	C354.204407,78.246391 300.037109,59.055851 245.780106,40.122200 
	C242.957138,39.137093 239.209915,39.209045 236.355484,40.166996 
	C219.348709,45.874550 202.482101,51.999229 185.560822,57.962261 
	C148.283615,71.098694 110.990860,84.191345 73.759926,97.457550 
	C72.173256,98.022903 70.027161,100.139221 70.017822,101.545486 
	C69.859711,125.354462 69.999290,149.165405 69.891533,173.902420 
	C69.952118,187.276581 70.012711,200.650757 69.891426,214.943573 
	C69.877541,242.755997 69.846565,270.568451 69.894516,298.380737 
	C69.897240,299.960083 70.094666,301.865479 70.964233,303.067108 
	C81.197456,317.207977 91.576492,331.243317 102.046288,345.952881 
	C106.999580,352.637695 111.952866,359.322540 117.109856,366.662262 
	C119.144287,369.477081 121.079056,372.371155 123.238602,375.086487 
	C125.886650,378.416046 128.160828,382.485199 131.594711,384.655243 
	C138.687241,389.137360 146.441101,392.572968 154.389465,396.909424 
	C159.589890,399.559052 164.790298,402.208710 170.545609,405.302032 
	C188.347107,414.644104 206.148621,423.986145 224.393860,433.828522 
	C229.602646,436.481873 234.811447,439.135223 240.708511,442.173523 
	C249.812088,437.487793 258.915680,432.802063 268.731964,428.032104 
	C273.512604,425.450562 278.293243,422.869019 283.782501,420.131348 
	C299.259949,411.925751 314.737396,403.720123 330.892273,395.253906 
	C335.639099,392.708557 340.385956,390.163208 345.828918,387.367920 
z"/>
<path fill="#AA2929" opacity="1.000000" stroke="none" 
	d="
M403.978180,312.994568 
	C396.558990,323.320679 389.139801,333.646820 381.408752,343.674316 
	C381.069763,323.890411 381.025726,304.405121 381.019165,284.919830 
	C381.006714,247.946930 380.963684,210.973785 381.132080,174.001663 
	C381.143402,171.522583 382.083282,168.022415 383.851685,166.753021 
	C391.767853,161.070587 394.766754,153.340622 393.882080,144.181442 
	C392.438293,129.233658 379.088623,118.549377 363.806030,126.157776 
	C350.034241,133.014023 348.839874,156.423828 361.731995,165.694138 
	C364.801117,167.901016 366.039001,170.141830 366.025177,173.885178 
	C365.897247,208.525986 365.938110,243.167404 365.473450,277.879395 
	C359.762909,277.950134 354.508789,277.950134 348.810608,277.950134 
	C348.810608,235.992218 348.810608,194.642853 348.810608,152.611328 
	C344.574615,152.611328 340.783264,152.611328 336.879578,152.442719 
	C336.558868,152.097534 336.328766,151.956360 335.908234,151.557938 
	C331.706543,146.142883 330.115906,140.818573 330.762909,133.870239 
	C331.911499,121.535400 322.093933,112.011559 310.439972,112.501938 
	C297.981049,113.026184 289.234192,122.586403 290.035706,134.856140 
	C290.537903,142.543991 295.219421,147.587936 300.970703,152.105194 
	C300.959229,152.290024 301.049500,152.649216 300.586395,152.715866 
	C295.777496,152.714371 291.431671,152.646240 286.990265,152.265091 
	C278.833313,140.333069 270.832458,128.671341 262.670807,117.123238 
	C260.458038,113.992310 259.824615,111.487099 261.881714,107.686813 
	C266.376892,99.382423 264.098236,90.054016 256.787476,83.244522 
	C250.367828,77.265038 240.650986,76.246132 232.664490,80.714989 
	C225.013718,84.995995 221.187012,94.508728 223.262161,104.088112 
	C224.950394,111.881401 232.633408,118.063454 241.696518,119.108269 
	C243.074249,119.267090 244.927231,119.738052 245.619492,120.724754 
	C252.867569,131.055756 259.923645,141.521423 267.005188,152.124802 
	C266.977448,152.299789 267.036591,152.649155 266.569946,152.715820 
	C256.051575,152.738007 245.999863,152.693497 235.975311,152.263702 
	C236.376450,150.267868 236.682709,148.638031 237.135254,147.049881 
	C240.295944,135.957718 233.578262,124.099396 222.584259,121.410995 
	C210.651001,118.492920 198.870972,125.580566 197.178482,137.397064 
	C196.472473,142.326141 197.592590,147.516754 197.428284,152.673676 
	C177.633148,152.722473 158.292114,152.686050 138.984741,152.481110 
	C139.018402,152.312607 138.966492,151.973373 139.130798,151.683563 
	C149.098831,141.206650 158.810028,130.926895 168.810074,120.936279 
	C170.243729,119.503967 173.032669,119.107491 175.263519,118.863457 
	C179.362488,118.415085 183.709900,119.169128 187.603775,118.121315 
	C198.010971,115.320801 203.485413,104.406921 200.786530,93.054642 
	C198.420670,83.103188 187.771439,76.360596 177.324081,78.199310 
	C166.623672,80.082565 158.480850,90.516479 160.295502,101.069992 
	C161.034912,105.370163 159.802902,107.865379 156.963379,110.629997 
	C147.658417,119.689560 138.461548,128.865250 129.421814,138.188934 
	C126.813644,140.879044 124.589546,141.628555 120.742805,140.624954 
	C112.226685,138.403137 104.889786,141.281540 99.468559,148.167007 
	C94.386116,154.622162 93.744507,161.869522 97.186264,169.306198 
	C100.824783,177.167969 107.030991,180.845810 115.795746,181.158615 
	C122.378082,181.393509 127.157799,178.056778 132.300354,175.330719 
	C132.332550,197.904526 132.259659,220.010956 131.882599,241.950562 
	C118.685951,229.003937 105.740356,216.276520 92.995224,203.351425 
	C91.897888,202.238617 91.599670,199.747208 91.825668,198.012863 
	C93.763687,183.139832 85.122162,173.096542 70.073036,172.975922 
	C69.999290,149.165405 69.859711,125.354462 70.017822,101.545486 
	C70.027161,100.139221 72.173256,98.022903 73.759926,97.457550 
	C110.990860,84.191345 148.283615,71.098694 185.560822,57.962261 
	C202.482101,51.999229 219.348709,45.874550 236.355484,40.166996 
	C239.209915,39.209045 242.957138,39.137093 245.780106,40.122200 
	C300.037109,59.055851 354.204407,78.246391 408.444885,97.227692 
	C411.895569,98.435234 412.921661,100.015526 412.901123,103.580910 
	C412.738953,131.726761 412.792786,159.873856 412.283447,188.478516 
	C409.181152,189.307510 406.387604,189.200287 404.004578,190.137238 
	C396.128876,193.233780 391.299683,199.070587 390.229523,207.572052 
	C389.152618,216.127563 393.420746,222.432739 399.962799,227.029953 
	C403.179443,229.290359 404.033844,231.643753 404.019928,235.243805 
	C403.919830,261.160400 403.973389,287.077576 403.978180,312.994568 
z"/>
<path fill="#AA2929" opacity="1.000000" stroke="none" 
	d="
M223.950119,433.328217 
	C206.148621,423.986145 188.347107,414.644104 170.274536,404.621155 
	C170.005875,366.685944 170.008286,329.431641 170.474640,292.108032 
	C189.977219,292.079529 209.015823,292.120361 228.023956,292.516418 
	C225.635529,297.712677 222.518692,302.034607 222.802536,308.076599 
	C223.332260,319.352478 229.511124,327.162323 240.422256,328.825104 
	C250.213181,330.317139 260.021851,323.981995 263.120941,314.088043 
	C265.813416,305.492432 262.710175,298.464783 257.487244,292.109192 
	C266.609436,292.091461 275.268921,292.141846 283.930969,292.644623 
	C285.573639,302.729523 281.604248,309.571259 274.581787,316.176331 
	C258.572632,331.233917 243.394440,347.172394 227.740585,362.613007 
	C225.018326,365.298187 223.943314,368.080475 223.964493,371.862854 
	C224.079300,392.350647 223.977371,412.839630 223.950119,433.328217 
z"/>
<path fill="#AB2929" opacity="1.000000" stroke="none" 
	d="
M330.214844,395.514526 
	C314.737396,403.720123 299.259949,411.925751 283.409088,419.723267 
	C283.024261,414.826508 282.902527,410.334747 283.027710,405.849915 
	C283.207672,399.403015 292.040131,392.646881 298.281586,392.943481 
	C302.707581,393.153778 307.711945,392.596436 311.589966,390.651062 
	C320.738800,386.061615 324.309509,375.307373 320.820404,365.883362 
	C317.361053,356.539703 307.742523,350.655334 298.438660,352.190796 
	C287.610687,353.977844 280.106110,362.051514 281.257416,373.068207 
	C282.026581,380.428284 279.475098,384.967163 274.362579,389.125092 
	C273.336151,389.959869 272.145966,390.832184 271.592072,391.962067 
	C270.207825,394.785736 268.259888,397.725403 268.119415,400.693390 
	C267.687775,409.815521 267.997620,418.972778 268.019257,428.116333 
	C258.915680,432.802063 249.812088,437.487793 240.371368,441.526184 
	C240.028397,419.925629 240.111526,398.971619 239.938843,378.019745 
	C239.905807,374.010773 241.218552,371.180267 244.027512,368.415039 
	C257.418396,355.232605 269.957764,341.089417 284.133087,328.829285 
	C295.846161,318.698730 301.743591,307.533691 299.494873,292.113922 
	C309.968048,292.088348 319.979858,292.132507 329.995728,292.634247 
	C330.071472,327.232727 330.143158,361.373596 330.214844,395.514526 
z"/>
<path fill="#AA2929" opacity="1.000000" stroke="none" 
	d="
M101.917114,345.306458 
	C91.576492,331.243317 81.197456,317.207977 70.964233,303.067108 
	C70.094666,301.865479 69.897240,299.960083 69.894516,298.380737 
	C69.846565,270.568451 69.877541,242.755997 70.407623,214.482605 
	C78.180702,211.933853 82.769630,215.656113 87.411476,220.699600 
	C95.264198,229.231750 103.639610,237.292831 111.982178,245.358627 
	C114.810349,248.092957 116.198372,250.932129 116.057693,254.938583 
	C115.790207,262.556030 115.970650,270.189178 115.555580,277.885315 
	C107.434853,278.725800 112.279587,284.576874 111.260040,287.974762 
	C110.120491,291.772644 113.107742,292.189209 115.968704,292.640503 
	C115.974579,302.585754 116.050209,312.074890 115.911903,321.560944 
	C115.887276,323.250183 115.481667,325.872192 114.390862,326.456848 
	C106.749695,330.552399 103.502373,337.328186 101.917114,345.306458 
z"/>
<path fill="#D33939" opacity="1.000000" stroke="none" 
	d="
M365.929932,277.808655 
	C365.938110,243.167404 365.897247,208.525986 366.025177,173.885178 
	C366.039001,170.141830 364.801117,167.901016 361.731995,165.694138 
	C348.839874,156.423828 350.034241,133.014023 363.806030,126.157776 
	C379.088623,118.549377 392.438293,129.233658 393.882080,144.181442 
	C394.766754,153.340622 391.767853,161.070587 383.851685,166.753021 
	C382.083282,168.022415 381.143402,171.522583 381.132080,174.001663 
	C380.963684,210.973785 381.006714,247.946930 381.019165,284.919830 
	C381.025726,304.405121 381.069763,323.890411 381.119720,343.866333 
	C377.309998,349.799469 373.477417,355.241943 369.057068,360.623749 
	C367.632385,358.420593 366.088196,356.284668 366.068207,354.134613 
	C365.876434,333.487976 365.941742,312.839020 366.372681,292.117615 
	C367.937805,291.070831 369.759460,290.262909 370.039337,289.087799 
	C370.563171,286.888123 370.024506,284.460175 370.235687,282.155365 
	C370.539093,278.843750 369.015869,277.621918 365.929932,277.808655 
z"/>
<path fill="#D33939" opacity="1.000000" stroke="none" 
	d="
M299.033539,292.183655 
	C301.743591,307.533691 295.846161,318.698730 284.133087,328.829285 
	C269.957764,341.089417 257.418396,355.232605 244.027512,368.415039 
	C241.218552,371.180267 239.905807,374.010773 239.938843,378.019745 
	C240.111526,398.971619 240.028397,419.925629 240.027222,441.333740 
	C234.811447,439.135223 229.602646,436.481873 224.171997,433.578369 
	C223.977371,412.839630 224.079300,392.350647 223.964493,371.862854 
	C223.943314,368.080475 225.018326,365.298187 227.740585,362.613007 
	C243.394440,347.172394 258.572632,331.233917 274.581787,316.176331 
	C281.604248,309.571259 285.573639,302.729523 284.399323,292.571716 
	C289.587891,292.092163 294.310730,292.137909 299.033539,292.183655 
z"/>
<path fill="#D33838" opacity="1.000000" stroke="none" 
	d="
M115.965073,277.815826 
	C115.970650,270.189178 115.790207,262.556030 116.057693,254.938583 
	C116.198372,250.932129 114.810349,248.092957 111.982178,245.358627 
	C103.639610,237.292831 95.264198,229.231750 87.411476,220.699600 
	C82.769630,215.656113 78.180702,211.933853 70.498550,214.023270 
	C70.012711,200.650757 69.952118,187.276581 69.982285,173.439178 
	C85.122162,173.096542 93.763687,183.139832 91.825668,198.012863 
	C91.599670,199.747208 91.897888,202.238617 92.995224,203.351425 
	C105.740356,216.276520 118.685951,229.003937 132.021576,242.389679 
	C132.464691,254.542923 132.464691,266.090240 132.464691,277.815826 
	C126.542236,277.815826 121.253654,277.815826 115.965073,277.815826 
z"/>
<path fill="#AA2A2A" opacity="1.000000" stroke="none" 
	d="
M153.922913,396.439087 
	C146.441101,392.572968 138.687241,389.137360 131.594711,384.655243 
	C128.160828,382.485199 125.886650,378.416046 123.238602,375.086487 
	C121.079056,372.371155 119.144287,369.477081 117.477219,366.337463 
	C122.122978,365.713989 126.746902,366.362610 130.619080,364.950195 
	C146.156189,359.282959 148.682022,340.139282 135.446091,329.185150 
	C132.807297,327.001251 131.874680,324.821625 131.919662,321.589569 
	C132.056061,311.784607 131.975052,301.976624 132.446594,292.103516 
	C139.949417,292.081573 146.984375,292.125885 154.024338,292.628174 
	C153.993881,327.537109 153.958405,361.988098 153.922913,396.439087 
z"/>
<path fill="#D33939" opacity="1.000000" stroke="none" 
	d="
M268.375610,428.074219 
	C267.997620,418.972778 267.687775,409.815521 268.119415,400.693390 
	C268.259888,397.725403 270.207825,394.785736 271.592072,391.962067 
	C272.145966,390.832184 273.336151,389.959869 274.362579,389.125092 
	C279.475098,384.967163 282.026581,380.428284 281.257416,373.068207 
	C280.106110,362.051514 287.610687,353.977844 298.438660,352.190796 
	C307.742523,350.655334 317.361053,356.539703 320.820404,365.883362 
	C324.309509,375.307373 320.738800,386.061615 311.589966,390.651062 
	C307.711945,392.596436 302.707581,393.153778 298.281586,392.943481 
	C292.040131,392.646881 283.207672,399.403015 283.027710,405.849915 
	C282.902527,410.334747 283.024261,414.826508 283.054779,419.801331 
	C278.293243,422.869019 273.512604,425.450562 268.375610,428.074219 
z"/>
<path fill="#D33939" opacity="1.000000" stroke="none" 
	d="
M131.978729,292.169800 
	C131.975052,301.976624 132.056061,311.784607 131.919662,321.589569 
	C131.874680,324.821625 132.807297,327.001251 135.446091,329.185150 
	C148.682022,340.139282 146.156189,359.282959 130.619080,364.950195 
	C126.746902,366.362610 122.122978,365.713989 117.375366,366.010010 
	C111.952866,359.322540 106.999580,352.637695 101.981705,345.629669 
	C103.502373,337.328186 106.749695,330.552399 114.390862,326.456848 
	C115.481667,325.872192 115.887276,323.250183 115.911903,321.560944 
	C116.050209,312.074890 115.974579,302.585754 116.433868,292.570557 
	C121.923424,292.085571 126.951080,292.127686 131.978729,292.169800 
z"/>
<path fill="#AB2A2A" opacity="1.000000" stroke="none" 
	d="
M365.933411,292.190704 
	C365.941742,312.839020 365.876434,333.487976 366.068207,354.134613 
	C366.088196,356.284668 367.632385,358.420593 368.767456,360.794708 
	C363.982422,368.186432 359.136108,375.534668 353.682861,382.400818 
	C351.863892,384.691101 348.491302,385.747498 345.458862,386.984314 
	C345.069397,355.128021 345.050018,323.655365 345.492218,292.112854 
	C352.613678,292.092255 359.273560,292.141479 365.933411,292.190704 
z"/>
<path fill="#D33939" opacity="1.000000" stroke="none" 
	d="
M154.156189,396.674255 
	C153.958405,361.988098 153.993881,327.537109 154.483917,292.561340 
	C159.962555,292.083496 164.986618,292.130402 170.010681,292.177307 
	C170.008286,329.431641 170.005875,366.685944 169.997101,404.399323 
	C164.790298,402.208710 159.589890,399.559052 154.156189,396.674255 
z"/>
<path fill="#D33939" opacity="1.000000" stroke="none" 
	d="
M345.030609,292.182678 
	C345.050018,323.655365 345.069397,355.128021 345.110779,387.109283 
	C340.385956,390.163208 335.639099,392.708557 330.553558,395.384216 
	C330.143158,361.373596 330.071472,327.232727 330.457703,292.567017 
	C335.620605,292.089050 340.325623,292.135864 345.030609,292.182678 
z"/>
<path fill="#D33F3F" opacity="1.000000" stroke="none" 
	d="
M404.270325,312.824799 
	C403.973389,287.077576 403.919830,261.160400 404.019928,235.243805 
	C404.033844,231.643753 403.179443,229.290359 399.962799,227.029953 
	C393.420746,222.432739 389.152618,216.127563 390.229523,207.572052 
	C391.299683,199.070587 396.128876,193.233780 404.004578,190.137238 
	C406.387604,189.200287 409.181152,189.307510 412.199036,188.936188 
	C412.685394,209.407257 412.778168,229.878571 412.826874,250.349991 
	C412.860565,264.501099 412.527679,278.662018 412.976685,292.798950 
	C413.169128,298.857086 411.763428,303.808929 407.811707,308.235687 
	C406.599548,309.593536 405.638489,311.175629 404.270325,312.824799 
z"/>
<path fill="#FDF7F7" opacity="1.000000" stroke="none" 
	d="
M345.492218,292.112854 
	C340.325623,292.135864 335.620605,292.089050 330.453674,292.109436 
	C319.979858,292.132507 309.968048,292.088348 299.494873,292.113922 
	C294.310730,292.137909 289.587891,292.092163 284.396729,292.119324 
	C275.268921,292.141846 266.609436,292.091461 257.021942,292.041321 
	C246.747437,292.081421 237.400940,292.121307 228.054443,292.161163 
	C209.015823,292.120361 189.977219,292.079529 170.474640,292.108032 
	C164.986618,292.130402 159.962555,292.083496 154.478912,292.103394 
	C146.984375,292.125885 139.949417,292.081573 132.446594,292.103516 
	C126.951080,292.127686 121.923424,292.085571 116.430618,292.113403 
	C113.107742,292.189209 110.120491,291.772644 111.260040,287.974762 
	C112.279587,284.576874 107.434853,278.725800 115.555588,277.885315 
	C121.253654,277.815826 126.542236,277.815826 132.464691,277.815826 
	C132.464691,266.090240 132.464691,254.542923 132.325714,242.556488 
	C132.259659,220.010956 132.332550,197.904526 132.430923,174.890137 
	C132.456406,167.093231 132.456406,160.204300 132.456406,153.177399 
	C134.801834,152.966370 136.425095,152.820312 138.276031,152.742035 
	C138.503738,152.809799 138.951080,152.649628 138.951080,152.649628 
	C158.292114,152.686050 177.633148,152.722473 197.898376,152.771103 
	C211.197754,152.738541 223.572937,152.693771 235.948135,152.648987 
	C245.999863,152.693497 256.051575,152.738007 266.797791,152.794327 
	C267.492279,152.806152 267.952423,152.655075 268.419861,152.717834 
	C274.953522,152.713089 281.019684,152.645599 287.085876,152.578125 
	C291.431671,152.646240 295.777496,152.714371 300.893860,152.808746 
	C302.087036,152.773621 302.509644,152.712280 303.400574,152.719299 
	C314.573853,152.730057 325.278778,152.672424 336.235992,152.684555 
	C336.656158,152.706650 336.824005,152.658981 336.991882,152.611328 
	C340.783264,152.611328 344.574615,152.611328 348.810608,152.611328 
	C348.810608,194.642853 348.810608,235.992218 348.810608,277.950134 
	C354.508789,277.950134 359.762909,277.950134 365.473450,277.879395 
	C369.015869,277.621918 370.539093,278.843750 370.235687,282.155365 
	C370.024506,284.460175 370.563171,286.888123 370.039337,289.087799 
	C369.759460,290.262909 367.937805,291.070831 366.372711,292.117615 
	C359.273560,292.141479 352.613678,292.092255 345.492218,292.112854 
M330.496033,276.979156 
	C335.586060,276.979156 340.676056,276.979156 345.635071,276.979156 
	C345.635071,236.223892 345.635071,196.168900 345.635071,156.118774 
	C317.855682,156.118774 290.421143,156.118774 263.024689,156.118774 
	C261.963379,163.547943 261.963379,163.547974 254.250443,163.548447 
	C252.418213,163.548569 250.585968,163.548477 248.753738,163.548477 
	C238.967056,163.548477 229.180374,163.548462 219.199081,163.548462 
	C218.914688,160.741638 218.685684,158.481583 218.451477,156.170258 
	C190.823502,156.170258 163.412918,156.170258 135.877930,156.170258 
	C135.877930,196.511078 135.877930,236.544250 135.877930,276.979156 
	C200.636948,276.979156 265.067352,276.979156 330.496033,276.979156 
M257.500000,288.979614 
	C293.924408,288.979614 330.348816,288.979614 366.774567,288.979614 
	C366.774567,286.039276 366.774567,283.660645 366.774567,281.387207 
	C282.424713,281.387207 198.436569,281.387207 114.428162,281.387207 
	C114.428162,284.040314 114.428162,286.321106 114.428162,288.979614 
	C161.936447,288.979614 209.218216,288.979614 257.500000,288.979614 
M242.496506,160.575760 
	C246.979294,160.574875 251.464005,160.492950 255.944290,160.598587 
	C259.562622,160.683884 260.278931,159.185089 258.974701,156.263214 
	C246.479645,156.263214 234.254913,156.263214 222.029312,156.263214 
	C222.132584,160.433441 222.131592,160.510406 225.559464,160.554626 
	C230.871536,160.623154 236.185104,160.574539 242.496506,160.575760 
z"/>
<path fill="#D33B3B" opacity="1.000000" stroke="none" 
	d="
M138.048340,152.674255 
	C136.425095,152.820312 134.801834,152.966370 132.456406,153.177399 
	C132.456406,160.204300 132.456406,167.093231 132.325836,174.422760 
	C127.157799,178.056778 122.378082,181.393509 115.795746,181.158615 
	C107.030991,180.845810 100.824783,177.167969 97.186264,169.306198 
	C93.744507,161.869522 94.386116,154.622162 99.468559,148.167007 
	C104.889786,141.281540 112.226685,138.403137 120.742805,140.624954 
	C124.589546,141.628555 126.813644,140.879044 129.421814,138.188934 
	C138.461548,128.865250 147.658417,119.689560 156.963379,110.629997 
	C159.802902,107.865379 161.034912,105.370163 160.295502,101.069992 
	C158.480850,90.516479 166.623672,80.082565 177.324081,78.199310 
	C187.771439,76.360596 198.420670,83.103188 200.786530,93.054642 
	C203.485413,104.406921 198.010971,115.320801 187.603775,118.121315 
	C183.709900,119.169128 179.362488,118.415085 175.263519,118.863457 
	C173.032669,119.107491 170.243729,119.503967 168.810074,120.936279 
	C158.810028,130.926895 149.098831,141.206650 138.963928,151.781616 
	C138.413132,152.309021 138.218323,152.477280 138.048340,152.674255 
z"/>
<path fill="#D33939" opacity="1.000000" stroke="none" 
	d="
M286.990265,152.265106 
	C281.019684,152.645599 274.953522,152.713089 268.285919,152.576920 
	C267.483856,152.206650 267.266663,152.065506 267.032898,151.949814 
	C259.923645,141.521423 252.867569,131.055756 245.619492,120.724754 
	C244.927231,119.738052 243.074249,119.267090 241.696518,119.108269 
	C232.633408,118.063454 224.950394,111.881401 223.262161,104.088112 
	C221.187012,94.508728 225.013718,84.995995 232.664490,80.714989 
	C240.650986,76.246132 250.367828,77.265038 256.787476,83.244522 
	C264.098236,90.054016 266.376892,99.382423 261.881714,107.686813 
	C259.824615,111.487099 260.458038,113.992310 262.670807,117.123238 
	C270.832458,128.671341 278.833313,140.333069 286.990265,152.265106 
z"/>
<path fill="#D33939" opacity="1.000000" stroke="none" 
	d="
M335.983704,152.614807 
	C325.278778,152.672424 314.573853,152.730057 303.181824,152.573822 
	C301.990540,152.213440 301.486359,152.066895 300.982208,151.920364 
	C295.219421,147.587936 290.537903,142.543991 290.035706,134.856140 
	C289.234192,122.586403 297.981049,113.026184 310.439972,112.501938 
	C322.093933,112.011559 331.911499,121.535400 330.762909,133.870239 
	C330.115906,140.818573 331.706543,146.142883 335.874725,151.748871 
	C336.009918,152.232437 335.983704,152.614807 335.983704,152.614807 
z"/>
<path fill="#D24040" opacity="1.000000" stroke="none" 
	d="
M235.975311,152.263702 
	C223.572937,152.693771 211.197754,152.738541 198.352478,152.685883 
	C197.592590,147.516754 196.472473,142.326141 197.178482,137.397064 
	C198.870972,125.580566 210.651001,118.492920 222.584259,121.410995 
	C233.578262,124.099396 240.295944,135.957718 237.135254,147.049881 
	C236.682709,148.638031 236.376450,150.267868 235.975311,152.263702 
z"/>
<path fill="#D24040" opacity="1.000000" stroke="none" 
	d="
M300.970703,152.105194 
	C301.486359,152.066895 301.990540,152.213440 302.713440,152.505447 
	C302.509644,152.712280 302.087036,152.773621 301.356995,152.742096 
	C301.049500,152.649216 300.959229,152.290024 300.970703,152.105194 
z"/>
<path fill="#D24040" opacity="1.000000" stroke="none" 
	d="
M336.235992,152.684555 
	C335.983704,152.614807 336.009918,152.232437 336.043427,152.041504 
	C336.328766,151.956360 336.558868,152.097534 336.879578,152.442719 
	C336.824005,152.658981 336.656158,152.706650 336.235992,152.684555 
z"/>
<path fill="#D24040" opacity="1.000000" stroke="none" 
	d="
M267.005188,152.124802 
	C267.266663,152.065506 267.483856,152.206650 267.818481,152.514160 
	C267.952423,152.655075 267.492279,152.806152 267.264435,152.727661 
	C267.036591,152.649155 266.977448,152.299789 267.005188,152.124802 
z"/>
<path fill="#D24040" opacity="1.000000" stroke="none" 
	d="
M138.276031,152.742035 
	C138.218323,152.477280 138.413132,152.309021 138.799622,152.071426 
	C138.966492,151.973373 139.018402,152.312607 138.984741,152.481110 
	C138.951080,152.649628 138.503738,152.809799 138.276031,152.742035 
z"/>
<path fill="#D33939" opacity="1.000000" stroke="none" 
	d="
M228.023956,292.516418 
	C237.400940,292.121307 246.747437,292.081421 256.559204,292.109436 
	C262.710175,298.464783 265.813416,305.492432 263.120941,314.088043 
	C260.021851,323.981995 250.213181,330.317139 240.422256,328.825104 
	C229.511124,327.162323 223.332260,319.352478 222.802536,308.076599 
	C222.518692,302.034607 225.635529,297.712677 228.023956,292.516418 
z"/>
<path fill="#D43939" opacity="1.000000" stroke="none" 
	d="
M329.996887,276.979156 
	C265.067352,276.979156 200.636948,276.979156 135.877930,276.979156 
	C135.877930,236.544250 135.877930,196.511078 135.877930,156.170258 
	C163.412918,156.170258 190.823502,156.170258 218.451477,156.170258 
	C218.685684,158.481583 218.914688,160.741638 219.199081,163.548462 
	C229.180374,163.548462 238.967056,163.548477 248.753738,163.548477 
	C250.585968,163.548477 252.418213,163.548569 254.250443,163.548447 
	C261.963379,163.547974 261.963379,163.547943 263.024689,156.118774 
	C290.421143,156.118774 317.855682,156.118774 345.635071,156.118774 
	C345.635071,196.168900 345.635071,236.223892 345.635071,276.979156 
	C340.676056,276.979156 335.586060,276.979156 329.996887,276.979156 
z"/>
<path fill="#D43939" opacity="1.000000" stroke="none" 
	d="
M257.000000,288.979614 
	C209.218216,288.979614 161.936447,288.979614 114.428162,288.979614 
	C114.428162,286.321106 114.428162,284.040314 114.428162,281.387207 
	C198.436569,281.387207 282.424713,281.387207 366.774567,281.387207 
	C366.774567,283.660645 366.774567,286.039276 366.774567,288.979614 
	C330.348816,288.979614 293.924408,288.979614 257.000000,288.979614 
z"/>
<path fill="#D94E4E" opacity="1.000000" stroke="none" 
	d="
M241.997284,160.575668 
	C236.185104,160.574539 230.871536,160.623154 225.559464,160.554626 
	C222.131592,160.510406 222.132584,160.433441 222.029312,156.263214 
	C234.254913,156.263214 246.479645,156.263214 258.974701,156.263214 
	C260.278931,159.185089 259.562622,160.683884 255.944290,160.598587 
	C251.464005,160.492950 246.979294,160.574875 241.997284,160.575668 
z"/>
</svg>